<svg baseProfile="full" height="940" version="1.1" viewBox="0,0,1500,940" width="1500" xmlns="http://www.w3.org/2000/svg" xmlns:ev="http://www.w3.org/2001/xml-events" xmlns:xlink="http://www.w3.org/1999/xlink"><defs><clipPath id="cl_212_738_865"><rect height="145.2439024390244" width="865.6536585365853" x="212.1731707317074" y="738.7560975609756" /></clipPath><clipPath id="cl_241_680_807"><rect height="33.890243902439025" width="807.2390243902439" x="241.38048780487813" y="680.6585365853658" /></clipPath><clipPath id="cl_1149_738_140"><rect height="145.2439024390244" width="140.0" x="1149.8268292682928" y="738.7560975609756" /></clipPath></defs><rect fill="#0a0f1e" height="940" width="1500" x="0" y="0" /><rect fill="#08121f" height="145.2439024390244" stroke="#4a9eca" stroke-width="1.5" width="865.6536585365853" x="212.1731707317074" y="738.7560975609756" /><g clip-path="url(#cl_212_738_865)"><line stroke="#1e4080" stroke-opacity="0.4" stroke-width="0.7" x1="-797.8268292682926" x2="-652.5829268292682" y1="738.7560975609756" y2="884.0" /><line stroke="#1e4080" stroke-opacity="0.4" stroke-width="0.7" x1="-785.8268292682926" x2="-640.5829268292682" y1="738.7560975609756" y2="884.0" /><line stroke="#1e4080" stroke-opacity="0.4" stroke-width="0.7" x1="-773.8268292682926" x2="-628.5829268292682" y1="738.7560975609756" y2="884.0" /><line stroke="#1e4080" stroke-opacity="0.4" stroke-width="0.7" x1="-761.8268292682926" x2="-616.5829268292682" y1="738.7560975609756" y2="884.0" /><line stroke="#1e4080" stroke-opacity="0.4" stroke-width="0.7" x1="-749.8268292682926" x2="-604.5829268292682" y1="738.7560975609756" y2="884.0" /><line stroke="#1e4080" stroke-opacity="0.4" stroke-width="0.7" x1="-737.8268292682926" x2="-592.5829268292682" y1="738.7560975609756" y2="884.0" /><line stroke="#1e4080" stroke-opacity="0.4" stroke-width="0.7" x1="-725.8268292682926" x2="-580.5829268292682" y1="738.7560975609756" y2="884.0" /><line stroke="#1e4080" stroke-opacity="0.4" stroke-width="0.7" x1="-713.8268292682926" x2="-568.5829268292682" y1="738.7560975609756" y2="884.0" /><line stroke="#1e4080" stroke-opacity="0.4" stroke-width="0.7" x1="-701.8268292682926" x2="-556.5829268292682" y1="738.7560975609756" y2="884.0" /><line stroke="#1e4080" stroke-opacity="0.4" stroke-width="0.7" x1="-689.8268292682926" x2="-544.5829268292682" y1="738.7560975609756" y2="884.0" /><line stroke="#1e4080" stroke-opacity="0.4" stroke-width="0.7" x1="-677.8268292682926" x2="-532.5829268292682" y1="738.7560975609756" y2="884.0" /><line stroke="#1e4080" stroke-opacity="0.4" stroke-width="0.7" x1="-665.8268292682926" x2="-520.5829268292682" y1="738.7560975609756" y2="884.0" /><line stroke="#1e4080" stroke-opacity="0.4" stroke-width="0.7" x1="-653.8268292682926" x2="-508.5829268292682" y1="738.7560975609756" y2="884.0" /><line stroke="#1e4080" stroke-opacity="0.4" stroke-width="0.7" x1="-641.8268292682926" x2="-496.5829268292682" y1="738.7560975609756" y2="884.0" /><line stroke="#1e4080" stroke-opacity="0.4" stroke-width="0.7" x1="-629.8268292682926" x2="-484.5829268292682" y1="738.7560975609756" y2="884.0" /><line stroke="#1e4080" stroke-opacity="0.4" stroke-width="0.7" x1="-617.8268292682926" x2="-472.5829268292682" y1="738.7560975609756" y2="884.0" /><line stroke="#1e4080" stroke-opacity="0.4" stroke-width="0.7" x1="-605.8268292682926" x2="-460.5829268292682" y1="738.7560975609756" y2="884.0" /><line stroke="#1e4080" stroke-opacity="0.4" stroke-width="0.7" x1="-593.8268292682926" x2="-448.5829268292682" y1="738.7560975609756" y2="884.0" /><line stroke="#1e4080" stroke-opacity="0.4" stroke-width="0.7" x1="-581.8268292682926" x2="-436.5829268292682" y1="738.7560975609756" y2="884.0" /><line stroke="#1e4080" stroke-opacity="0.4" stroke-width="0.7" x1="-569.8268292682926" x2="-424.5829268292682" y1="738.7560975609756" y2="884.0" /><line stroke="#1e4080" stroke-opacity="0.4" stroke-width="0.7" x1="-557.8268292682926" x2="-412.5829268292682" y1="738.7560975609756" y2="884.0" /><line stroke="#1e4080" stroke-opacity="0.4" stroke-width="0.7" x1="-545.8268292682926" x2="-400.5829268292682" y1="738.7560975609756" y2="884.0" /><line stroke="#1e4080" stroke-opacity="0.4" stroke-width="0.7" x1="-533.8268292682926" x2="-388.5829268292682" y1="738.7560975609756" y2="884.0" /><line stroke="#1e4080" stroke-opacity="0.4" stroke-width="0.7" x1="-521.8268292682926" x2="-376.5829268292682" y1="738.7560975609756" y2="884.0" /><line stroke="#1e4080" stroke-opacity="0.4" stroke-width="0.7" x1="-509.8268292682926" x2="-364.5829268292682" y1="738.7560975609756" y2="884.0" /><line stroke="#1e4080" stroke-opacity="0.4" stroke-width="0.7" x1="-497.8268292682926" x2="-352.5829268292682" y1="738.7560975609756" y2="884.0" /><line stroke="#1e4080" stroke-opacity="0.4" stroke-width="0.7" x1="-485.8268292682926" x2="-340.5829268292682" y1="738.7560975609756" y2="884.0" /><line stroke="#1e4080" stroke-opacity="0.4" stroke-width="0.7" x1="-473.8268292682926" x2="-328.5829268292682" y1="738.7560975609756" y2="884.0" /><line stroke="#1e4080" stroke-opacity="0.4" stroke-width="0.7" x1="-461.8268292682926" x2="-316.5829268292682" y1="738.7560975609756" y2="884.0" /><line stroke="#1e4080" stroke-opacity="0.4" stroke-width="0.7" x1="-449.8268292682926" x2="-304.5829268292682" y1="738.7560975609756" y2="884.0" /><line stroke="#1e4080" stroke-opacity="0.4" stroke-width="0.7" x1="-437.8268292682926" x2="-292.5829268292682" y1="738.7560975609756" y2="884.0" /><line stroke="#1e4080" stroke-opacity="0.4" stroke-width="0.7" x1="-425.8268292682926" x2="-280.5829268292682" y1="738.7560975609756" y2="884.0" /><line stroke="#1e4080" stroke-opacity="0.4" stroke-width="0.7" x1="-413.8268292682926" x2="-268.5829268292682" y1="738.7560975609756" y2="884.0" /><line stroke="#1e4080" stroke-opacity="0.4" stroke-width="0.7" x1="-401.8268292682926" x2="-256.5829268292682" y1="738.7560975609756" y2="884.0" /><line stroke="#1e4080" stroke-opacity="0.4" stroke-width="0.7" x1="-389.8268292682926" x2="-244.58292682926822" y1="738.7560975609756" y2="884.0" /><line stroke="#1e4080" stroke-opacity="0.4" stroke-width="0.7" x1="-377.8268292682926" x2="-232.58292682926822" y1="738.7560975609756" y2="884.0" /><line stroke="#1e4080" stroke-opacity="0.4" stroke-width="0.7" x1="-365.8268292682926" x2="-220.58292682926822" y1="738.7560975609756" y2="884.0" /><line stroke="#1e4080" stroke-opacity="0.4" stroke-width="0.7" x1="-353.8268292682926" x2="-208.58292682926822" y1="738.7560975609756" y2="884.0" /><line stroke="#1e4080" stroke-opacity="0.4" stroke-width="0.7" x1="-341.8268292682926" x2="-196.58292682926822" y1="738.7560975609756" y2="884.0" /><line stroke="#1e4080" stroke-opacity="0.4" stroke-width="0.7" x1="-329.8268292682926" x2="-184.58292682926822" y1="738.7560975609756" y2="884.0" /><line stroke="#1e4080" stroke-opacity="0.4" stroke-width="0.7" x1="-317.8268292682926" x2="-172.58292682926822" y1="738.7560975609756" y2="884.0" /><line stroke="#1e4080" stroke-opacity="0.4" stroke-width="0.7" x1="-305.8268292682926" x2="-160.58292682926822" y1="738.7560975609756" y2="884.0" /><line stroke="#1e4080" stroke-opacity="0.4" stroke-width="0.7" x1="-293.8268292682926" x2="-148.58292682926822" y1="738.7560975609756" y2="884.0" /><line stroke="#1e4080" stroke-opacity="0.4" stroke-width="0.7" x1="-281.8268292682926" x2="-136.58292682926822" y1="738.7560975609756" y2="884.0" /><line stroke="#1e4080" stroke-opacity="0.4" stroke-width="0.7" x1="-269.8268292682926" x2="-124.58292682926822" y1="738.7560975609756" y2="884.0" /><line stroke="#1e4080" stroke-opacity="0.4" stroke-width="0.7" x1="-257.8268292682926" x2="-112.58292682926822" y1="738.7560975609756" y2="884.0" /><line stroke="#1e4080" stroke-opacity="0.4" stroke-width="0.7" x1="-245.8268292682926" x2="-100.58292682926822" y1="738.7560975609756" y2="884.0" /><line stroke="#1e4080" stroke-opacity="0.4" stroke-width="0.7" x1="-233.8268292682926" x2="-88.58292682926822" y1="738.7560975609756" y2="884.0" /><line stroke="#1e4080" stroke-opacity="0.4" stroke-width="0.7" x1="-221.8268292682926" x2="-76.58292682926822" y1="738.7560975609756" y2="884.0" /><line stroke="#1e4080" stroke-opacity="0.4" stroke-width="0.7" x1="-209.8268292682926" x2="-64.58292682926822" y1="738.7560975609756" y2="884.0" /><line stroke="#1e4080" stroke-opacity="0.4" stroke-width="0.7" x1="-197.8268292682926" x2="-52.58292682926822" y1="738.7560975609756" y2="884.0" /><line stroke="#1e4080" stroke-opacity="0.4" stroke-width="0.7" x1="-185.8268292682926" x2="-40.58292682926822" y1="738.7560975609756" y2="884.0" /><line stroke="#1e4080" stroke-opacity="0.4" stroke-width="0.7" x1="-173.8268292682926" x2="-28.582926829268217" y1="738.7560975609756" y2="884.0" /><line stroke="#1e4080" stroke-opacity="0.4" stroke-width="0.7" x1="-161.8268292682926" x2="-16.582926829268217" y1="738.7560975609756" y2="884.0" /><line stroke="#1e4080" stroke-opacity="0.4" stroke-width="0.7" x1="-149.8268292682926" x2="-4.582926829268217" y1="738.7560975609756" y2="884.0" /><line stroke="#1e4080" stroke-opacity="0.4" stroke-width="0.7" x1="-137.8268292682926" x2="7.417073170731783" y1="738.7560975609756" y2="884.0" /><line stroke="#1e4080" stroke-opacity="0.4" stroke-width="0.7" x1="-125.82682926829261" x2="19.417073170731783" y1="738.7560975609756" y2="884.0" /><line stroke="#1e4080" stroke-opacity="0.4" stroke-width="0.7" x1="-113.82682926829261" x2="31.417073170731783" y1="738.7560975609756" y2="884.0" /><line stroke="#1e4080" stroke-opacity="0.4" stroke-width="0.7" x1="-101.82682926829261" x2="43.41707317073178" y1="738.7560975609756" y2="884.0" /><line stroke="#1e4080" stroke-opacity="0.4" stroke-width="0.7" x1="-89.82682926829261" x2="55.41707317073178" y1="738.7560975609756" y2="884.0" /><line stroke="#1e4080" stroke-opacity="0.4" stroke-width="0.7" x1="-77.82682926829261" x2="67.41707317073178" y1="738.7560975609756" y2="884.0" /><line stroke="#1e4080" stroke-opacity="0.4" stroke-width="0.7" x1="-65.82682926829261" x2="79.41707317073178" y1="738.7560975609756" y2="884.0" /><line stroke="#1e4080" stroke-opacity="0.4" stroke-width="0.7" x1="-53.82682926829261" x2="91.41707317073178" y1="738.7560975609756" y2="884.0" /><line stroke="#1e4080" stroke-opacity="0.4" stroke-width="0.7" x1="-41.82682926829261" x2="103.41707317073178" y1="738.7560975609756" y2="884.0" /><line stroke="#1e4080" stroke-opacity="0.4" stroke-width="0.7" x1="-29.826829268292613" x2="115.41707317073178" y1="738.7560975609756" y2="884.0" /><line stroke="#1e4080" stroke-opacity="0.4" stroke-width="0.7" x1="-17.826829268292613" x2="127.41707317073178" y1="738.7560975609756" y2="884.0" /><line stroke="#1e4080" stroke-opacity="0.4" stroke-width="0.7" x1="-5.826829268292613" x2="139.41707317073178" y1="738.7560975609756" y2="884.0" /><line stroke="#1e4080" stroke-opacity="0.4" stroke-width="0.7" x1="6.173170731707387" x2="151.41707317073178" y1="738.7560975609756" y2="884.0" /><line stroke="#1e4080" stroke-opacity="0.4" stroke-width="0.7" x1="18.173170731707387" x2="163.41707317073178" y1="738.7560975609756" y2="884.0" /><line stroke="#1e4080" stroke-opacity="0.4" stroke-width="0.7" x1="30.173170731707387" x2="175.41707317073178" y1="738.7560975609756" y2="884.0" /><line stroke="#1e4080" stroke-opacity="0.4" stroke-width="0.7" x1="42.17317073170739" x2="187.41707317073178" y1="738.7560975609756" y2="884.0" /><line stroke="#1e4080" stroke-opacity="0.4" stroke-width="0.7" x1="54.17317073170739" x2="199.41707317073178" y1="738.7560975609756" y2="884.0" /><line stroke="#1e4080" stroke-opacity="0.4" stroke-width="0.7" x1="66.17317073170739" x2="211.41707317073178" y1="738.7560975609756" y2="884.0" /><line stroke="#1e4080" stroke-opacity="0.4" stroke-width="0.7" x1="78.17317073170739" x2="223.41707317073178" y1="738.7560975609756" y2="884.0" /><line stroke="#1e4080" stroke-opacity="0.4" stroke-width="0.7" x1="90.17317073170739" x2="235.41707317073178" y1="738.7560975609756" y2="884.0" /><line stroke="#1e4080" stroke-opacity="0.4" stroke-width="0.7" x1="102.17317073170739" x2="247.41707317073178" y1="738.7560975609756" y2="884.0" /><line stroke="#1e4080" stroke-opacity="0.4" stroke-width="0.7" x1="114.17317073170739" x2="259.4170731707318" y1="738.7560975609756" y2="884.0" /><line stroke="#1e4080" stroke-opacity="0.4" stroke-width="0.7" x1="126.17317073170739" x2="271.4170731707318" y1="738.7560975609756" y2="884.0" /><line stroke="#1e4080" stroke-opacity="0.4" stroke-width="0.7" x1="138.1731707317074" x2="283.4170731707318" y1="738.7560975609756" y2="884.0" /><line stroke="#1e4080" stroke-opacity="0.4" stroke-width="0.7" x1="150.1731707317074" x2="295.4170731707318" y1="738.7560975609756" y2="884.0" /><line stroke="#1e4080" stroke-opacity="0.4" stroke-width="0.7" x1="162.1731707317074" x2="307.4170731707318" y1="738.7560975609756" y2="884.0" /><line stroke="#1e4080" stroke-opacity="0.4" stroke-width="0.7" x1="174.1731707317074" x2="319.4170731707318" y1="738.7560975609756" y2="884.0" /><line stroke="#1e4080" stroke-opacity="0.4" stroke-width="0.7" x1="186.1731707317074" x2="331.4170731707318" y1="738.7560975609756" y2="884.0" /><line stroke="#1e4080" stroke-opacity="0.4" stroke-width="0.7" x1="198.1731707317074" x2="343.4170731707318" y1="738.7560975609756" y2="884.0" /><line stroke="#1e4080" stroke-opacity="0.4" stroke-width="0.7" x1="210.1731707317074" x2="355.4170731707318" y1="738.7560975609756" y2="884.0" /><line stroke="#1e4080" stroke-opacity="0.4" stroke-width="0.7" x1="222.1731707317074" x2="367.4170731707318" y1="738.7560975609756" y2="884.0" /><line stroke="#1e4080" stroke-opacity="0.4" stroke-width="0.7" x1="234.1731707317074" x2="379.4170731707318" y1="738.7560975609756" y2="884.0" /><line stroke="#1e4080" stroke-opacity="0.4" stroke-width="0.7" x1="246.1731707317074" x2="391.4170731707318" y1="738.7560975609756" y2="884.0" /><line stroke="#1e4080" stroke-opacity="0.4" stroke-width="0.7" x1="258.1731707317074" x2="403.4170731707318" y1="738.7560975609756" y2="884.0" /><line stroke="#1e4080" stroke-opacity="0.4" stroke-width="0.7" x1="270.1731707317074" x2="415.4170731707318" y1="738.7560975609756" y2="884.0" /><line stroke="#1e4080" stroke-opacity="0.4" stroke-width="0.7" x1="282.1731707317074" x2="427.4170731707318" y1="738.7560975609756" y2="884.0" /><line stroke="#1e4080" stroke-opacity="0.4" stroke-width="0.7" x1="294.1731707317074" x2="439.4170731707318" y1="738.7560975609756" y2="884.0" /><line stroke="#1e4080" stroke-opacity="0.4" stroke-width="0.7" x1="306.1731707317074" x2="451.4170731707318" y1="738.7560975609756" y2="884.0" /><line stroke="#1e4080" stroke-opacity="0.4" stroke-width="0.7" x1="318.1731707317074" x2="463.4170731707318" y1="738.7560975609756" y2="884.0" /><line stroke="#1e4080" stroke-opacity="0.4" stroke-width="0.7" x1="330.1731707317074" x2="475.4170731707318" y1="738.7560975609756" y2="884.0" /><line stroke="#1e4080" stroke-opacity="0.4" stroke-width="0.7" x1="342.1731707317074" x2="487.4170731707318" y1="738.7560975609756" y2="884.0" /><line stroke="#1e4080" stroke-opacity="0.4" stroke-width="0.7" x1="354.1731707317074" x2="499.4170731707318" y1="738.7560975609756" y2="884.0" /><line stroke="#1e4080" stroke-opacity="0.4" stroke-width="0.7" x1="366.1731707317074" x2="511.4170731707318" y1="738.7560975609756" y2="884.0" /><line stroke="#1e4080" stroke-opacity="0.4" stroke-width="0.7" x1="378.1731707317074" x2="523.4170731707318" y1="738.7560975609756" y2="884.0" /><line stroke="#1e4080" stroke-opacity="0.4" stroke-width="0.7" x1="390.1731707317074" x2="535.4170731707318" y1="738.7560975609756" y2="884.0" /><line stroke="#1e4080" stroke-opacity="0.4" stroke-width="0.7" x1="402.1731707317074" x2="547.4170731707318" y1="738.7560975609756" y2="884.0" /><line stroke="#1e4080" stroke-opacity="0.4" stroke-width="0.7" x1="414.1731707317074" x2="559.4170731707318" y1="738.7560975609756" y2="884.0" /><line stroke="#1e4080" stroke-opacity="0.4" stroke-width="0.7" x1="426.1731707317074" x2="571.4170731707318" y1="738.7560975609756" y2="884.0" /><line stroke="#1e4080" stroke-opacity="0.4" stroke-width="0.7" x1="438.1731707317074" x2="583.4170731707318" y1="738.7560975609756" y2="884.0" /><line stroke="#1e4080" stroke-opacity="0.4" stroke-width="0.7" x1="450.1731707317074" x2="595.4170731707318" y1="738.7560975609756" y2="884.0" /><line stroke="#1e4080" stroke-opacity="0.4" stroke-width="0.7" x1="462.1731707317074" x2="607.4170731707318" y1="738.7560975609756" y2="884.0" /><line stroke="#1e4080" stroke-opacity="0.4" stroke-width="0.7" x1="474.1731707317074" x2="619.4170731707318" y1="738.7560975609756" y2="884.0" /><line stroke="#1e4080" stroke-opacity="0.4" stroke-width="0.7" x1="486.1731707317074" x2="631.4170731707318" y1="738.7560975609756" y2="884.0" /><line stroke="#1e4080" stroke-opacity="0.4" stroke-width="0.7" x1="498.1731707317074" x2="643.4170731707318" y1="738.7560975609756" y2="884.0" /><line stroke="#1e4080" stroke-opacity="0.4" stroke-width="0.7" x1="510.1731707317074" x2="655.4170731707318" y1="738.7560975609756" y2="884.0" /><line stroke="#1e4080" stroke-opacity="0.4" stroke-width="0.7" x1="522.1731707317074" x2="667.4170731707318" y1="738.7560975609756" y2="884.0" /><line stroke="#1e4080" stroke-opacity="0.4" stroke-width="0.7" x1="534.1731707317074" x2="679.4170731707318" y1="738.7560975609756" y2="884.0" /><line stroke="#1e4080" stroke-opacity="0.4" stroke-width="0.7" x1="546.1731707317074" x2="691.4170731707318" y1="738.7560975609756" y2="884.0" /><line stroke="#1e4080" stroke-opacity="0.4" stroke-width="0.7" x1="558.1731707317074" x2="703.4170731707318" y1="738.7560975609756" y2="884.0" /><line stroke="#1e4080" stroke-opacity="0.4" stroke-width="0.7" x1="570.1731707317074" x2="715.4170731707318" y1="738.7560975609756" y2="884.0" /><line stroke="#1e4080" stroke-opacity="0.4" stroke-width="0.7" x1="582.1731707317074" x2="727.4170731707318" y1="738.7560975609756" y2="884.0" /><line stroke="#1e4080" stroke-opacity="0.4" stroke-width="0.7" x1="594.1731707317074" x2="739.4170731707318" y1="738.7560975609756" y2="884.0" /><line stroke="#1e4080" stroke-opacity="0.4" stroke-width="0.7" x1="606.1731707317074" x2="751.4170731707318" y1="738.7560975609756" y2="884.0" /><line stroke="#1e4080" stroke-opacity="0.4" stroke-width="0.7" x1="618.1731707317074" x2="763.4170731707318" y1="738.7560975609756" y2="884.0" /><line stroke="#1e4080" stroke-opacity="0.4" stroke-width="0.7" x1="630.1731707317074" x2="775.4170731707318" y1="738.7560975609756" y2="884.0" /><line stroke="#1e4080" stroke-opacity="0.4" stroke-width="0.7" x1="642.1731707317074" x2="787.4170731707318" y1="738.7560975609756" y2="884.0" /><line stroke="#1e4080" stroke-opacity="0.4" stroke-width="0.7" x1="654.1731707317074" x2="799.4170731707318" y1="738.7560975609756" y2="884.0" /><line stroke="#1e4080" stroke-opacity="0.4" stroke-width="0.7" x1="666.1731707317074" x2="811.4170731707318" y1="738.7560975609756" y2="884.0" /><line stroke="#1e4080" stroke-opacity="0.4" stroke-width="0.7" x1="678.1731707317074" x2="823.4170731707318" y1="738.7560975609756" y2="884.0" /><line stroke="#1e4080" stroke-opacity="0.4" stroke-width="0.7" x1="690.1731707317074" x2="835.4170731707318" y1="738.7560975609756" y2="884.0" /><line stroke="#1e4080" stroke-opacity="0.4" stroke-width="0.7" x1="702.1731707317074" x2="847.4170731707318" y1="738.7560975609756" y2="884.0" /><line stroke="#1e4080" stroke-opacity="0.4" stroke-width="0.7" x1="714.1731707317074" x2="859.4170731707318" y1="738.7560975609756" y2="884.0" /><line stroke="#1e4080" stroke-opacity="0.4" stroke-width="0.7" x1="726.1731707317074" x2="871.4170731707318" y1="738.7560975609756" y2="884.0" /><line stroke="#1e4080" stroke-opacity="0.4" stroke-width="0.7" x1="738.1731707317074" x2="883.4170731707318" y1="738.7560975609756" y2="884.0" /><line stroke="#1e4080" stroke-opacity="0.4" stroke-width="0.7" x1="750.1731707317074" x2="895.4170731707318" y1="738.7560975609756" y2="884.0" /><line stroke="#1e4080" stroke-opacity="0.4" stroke-width="0.7" x1="762.1731707317074" x2="907.4170731707318" y1="738.7560975609756" y2="884.0" /><line stroke="#1e4080" stroke-opacity="0.4" stroke-width="0.7" x1="774.1731707317074" x2="919.4170731707318" y1="738.7560975609756" y2="884.0" /><line stroke="#1e4080" stroke-opacity="0.4" stroke-width="0.7" x1="786.1731707317074" x2="931.4170731707318" y1="738.7560975609756" y2="884.0" /><line stroke="#1e4080" stroke-opacity="0.4" stroke-width="0.7" x1="798.1731707317074" x2="943.4170731707318" y1="738.7560975609756" y2="884.0" /><line stroke="#1e4080" stroke-opacity="0.4" stroke-width="0.7" x1="810.1731707317074" x2="955.4170731707318" y1="738.7560975609756" y2="884.0" /><line stroke="#1e4080" stroke-opacity="0.4" stroke-width="0.7" x1="822.1731707317074" x2="967.4170731707318" y1="738.7560975609756" y2="884.0" /><line stroke="#1e4080" stroke-opacity="0.4" stroke-width="0.7" x1="834.1731707317074" x2="979.4170731707318" y1="738.7560975609756" y2="884.0" /><line stroke="#1e4080" stroke-opacity="0.4" stroke-width="0.7" x1="846.1731707317074" x2="991.4170731707318" y1="738.7560975609756" y2="884.0" /><line stroke="#1e4080" stroke-opacity="0.4" stroke-width="0.7" x1="858.1731707317074" x2="1003.4170731707318" y1="738.7560975609756" y2="884.0" /><line stroke="#1e4080" stroke-opacity="0.4" stroke-width="0.7" x1="870.1731707317074" x2="1015.4170731707318" y1="738.7560975609756" y2="884.0" /><line stroke="#1e4080" stroke-opacity="0.4" stroke-width="0.7" x1="882.1731707317074" x2="1027.4170731707318" y1="738.7560975609756" y2="884.0" /><line stroke="#1e4080" stroke-opacity="0.4" stroke-width="0.7" x1="894.1731707317074" x2="1039.4170731707318" y1="738.7560975609756" y2="884.0" /><line stroke="#1e4080" stroke-opacity="0.4" stroke-width="0.7" x1="906.1731707317074" x2="1051.4170731707318" y1="738.7560975609756" y2="884.0" /><line stroke="#1e4080" stroke-opacity="0.4" stroke-width="0.7" x1="918.1731707317074" x2="1063.4170731707318" y1="738.7560975609756" y2="884.0" /><line stroke="#1e4080" stroke-opacity="0.4" stroke-width="0.7" x1="930.1731707317074" x2="1075.4170731707318" y1="738.7560975609756" y2="884.0" /><line stroke="#1e4080" stroke-opacity="0.4" stroke-width="0.7" x1="942.1731707317074" x2="1087.4170731707318" y1="738.7560975609756" y2="884.0" /><line stroke="#1e4080" stroke-opacity="0.4" stroke-width="0.7" x1="954.1731707317074" x2="1099.4170731707318" y1="738.7560975609756" y2="884.0" /><line stroke="#1e4080" stroke-opacity="0.4" stroke-width="0.7" x1="966.1731707317074" x2="1111.4170731707318" y1="738.7560975609756" y2="884.0" /><line stroke="#1e4080" stroke-opacity="0.4" stroke-width="0.7" x1="978.1731707317074" x2="1123.4170731707318" y1="738.7560975609756" y2="884.0" /><line stroke="#1e4080" stroke-opacity="0.4" stroke-width="0.7" x1="990.1731707317074" x2="1135.4170731707318" y1="738.7560975609756" y2="884.0" /><line stroke="#1e4080" stroke-opacity="0.4" stroke-width="0.7" x1="1002.1731707317074" x2="1147.4170731707318" y1="738.7560975609756" y2="884.0" /><line stroke="#1e4080" stroke-opacity="0.4" stroke-width="0.7" x1="1014.1731707317074" x2="1159.4170731707318" y1="738.7560975609756" y2="884.0" /><line stroke="#1e4080" stroke-opacity="0.4" stroke-width="0.7" x1="1026.1731707317074" x2="1171.4170731707318" y1="738.7560975609756" y2="884.0" /><line stroke="#1e4080" stroke-opacity="0.4" stroke-width="0.7" x1="1038.1731707317074" x2="1183.4170731707318" y1="738.7560975609756" y2="884.0" /><line stroke="#1e4080" stroke-opacity="0.4" stroke-width="0.7" x1="1050.1731707317074" x2="1195.4170731707318" y1="738.7560975609756" y2="884.0" /><line stroke="#1e4080" stroke-opacity="0.4" stroke-width="0.7" x1="1062.1731707317074" x2="1207.4170731707318" y1="738.7560975609756" y2="884.0" /><line stroke="#1e4080" stroke-opacity="0.4" stroke-width="0.7" x1="1074.1731707317074" x2="1219.4170731707318" y1="738.7560975609756" y2="884.0" /><line stroke="#1e4080" stroke-opacity="0.4" stroke-width="0.7" x1="1086.1731707317074" x2="1231.4170731707318" y1="738.7560975609756" y2="884.0" /><line stroke="#1e4080" stroke-opacity="0.4" stroke-width="0.7" x1="1098.1731707317074" x2="1243.4170731707318" y1="738.7560975609756" y2="884.0" /><line stroke="#1e4080" stroke-opacity="0.4" stroke-width="0.7" x1="1110.1731707317074" x2="1255.4170731707318" y1="738.7560975609756" y2="884.0" /><line stroke="#1e4080" stroke-opacity="0.4" stroke-width="0.7" x1="1122.1731707317074" x2="1267.4170731707318" y1="738.7560975609756" y2="884.0" /><line stroke="#1e4080" stroke-opacity="0.4" stroke-width="0.7" x1="1134.1731707317074" x2="1279.4170731707318" y1="738.7560975609756" y2="884.0" /><line stroke="#1e4080" stroke-opacity="0.4" stroke-width="0.7" x1="1146.1731707317074" x2="1291.4170731707318" y1="738.7560975609756" y2="884.0" /><line stroke="#1e4080" stroke-opacity="0.4" stroke-width="0.7" x1="1158.1731707317074" x2="1303.4170731707318" y1="738.7560975609756" y2="884.0" /><line stroke="#1e4080" stroke-opacity="0.4" stroke-width="0.7" x1="1170.1731707317074" x2="1315.4170731707318" y1="738.7560975609756" y2="884.0" /><line stroke="#1e4080" stroke-opacity="0.4" stroke-width="0.7" x1="1182.1731707317074" x2="1327.4170731707318" y1="738.7560975609756" y2="884.0" /><line stroke="#1e4080" stroke-opacity="0.4" stroke-width="0.7" x1="1194.1731707317074" x2="1339.4170731707318" y1="738.7560975609756" y2="884.0" /><line stroke="#1e4080" stroke-opacity="0.4" stroke-width="0.7" x1="1206.1731707317074" x2="1351.4170731707318" y1="738.7560975609756" y2="884.0" /><line stroke="#1e4080" stroke-opacity="0.4" stroke-width="0.7" x1="1218.1731707317074" x2="1363.4170731707318" y1="738.7560975609756" y2="884.0" /></g><rect fill="#1a2e4a" height="648.7560975609756" stroke="#4a9eca" stroke-width="2.5" width="865.6536585365853" x="212.1731707317074" y="90" /><rect fill="none" height="628.7560975609756" stroke="#2563eb" stroke-dasharray="8,5" stroke-width="0.9" width="845.6536585365853" x="222.1731707317074" y="100" /><rect fill="#0d1f36" height="600.3414634146342" stroke="#3b82f6" stroke-dasharray="6,4" stroke-width="1.1" width="817.2390243902439" x="236.38048780487813" y="114.20731707317073" /><rect fill="#1c1917" height="59.55" stroke="#ef4444" stroke-dasharray="4,2" stroke-width="1.2" width="807.2390243902439" x="241.38048780487813" y="254.60975609756096" /><text fill="#ef4444" font-family="Arial" font-size="8" font-weight="bold" text-anchor="middle" x="645.0000000000001" y="268.609756097561">BUSBAR CHAMBER (4-POLE) — 123 mm</text><rect fill="#ef4444" height="5.809756097560975" stroke="#e2e8f0" stroke-width="0.5" width="797.2390243902439" x="246.38048780487813" y="254.60975609756096" /><text fill="#ffffff" font-family="Arial" font-size="5.5" font-weight="bold" x="261.38048780487816" y="260.01463414634145">L1 (Red)</text><rect fill="#f59e0b" height="5.809756097560975" stroke="#e2e8f0" stroke-width="0.5" width="797.2390243902439" x="246.38048780487813" y="272.5231707317073" /><text fill="#ffffff" font-family="Arial" font-size="5.5" font-weight="bold" x="261.38048780487816" y="277.92804878048776">L2 (Yellow)</text><rect fill="#3b82f6" height="5.809756097560975" stroke="#e2e8f0" stroke-width="0.5" width="797.2390243902439" x="246.38048780487813" y="290.43658536585366" /><text fill="#ffffff" font-family="Arial" font-size="5.5" font-weight="bold" x="261.38048780487816" y="295.8414634146341">L3 (Blue)</text><rect fill="#4b5563" height="5.809756097560975" stroke="#e2e8f0" stroke-width="0.5" width="797.2390243902439" x="246.38048780487813" y="308.35" /><text fill="#ffffff" font-family="Arial" font-size="5.5" font-weight="bold" x="261.38048780487816" y="313.7548780487805">Neutral</text><g clip-path="url(#cl_241_680_807)"><line stroke="#1e4080" stroke-opacity="0.4" stroke-width="0.7" x1="-599.6195121951218" x2="-565.7292682926828" y1="680.6585365853658" y2="714.5487804878048" /><line stroke="#1e4080" stroke-opacity="0.4" stroke-width="0.7" x1="-591.6195121951218" x2="-557.7292682926828" y1="680.6585365853658" y2="714.5487804878048" /><line stroke="#1e4080" stroke-opacity="0.4" stroke-width="0.7" x1="-583.6195121951218" x2="-549.7292682926828" y1="680.6585365853658" y2="714.5487804878048" /><line stroke="#1e4080" stroke-opacity="0.4" stroke-width="0.7" x1="-575.6195121951218" x2="-541.7292682926828" y1="680.6585365853658" y2="714.5487804878048" /><line stroke="#1e4080" stroke-opacity="0.4" stroke-width="0.7" x1="-567.6195121951218" x2="-533.7292682926828" y1="680.6585365853658" y2="714.5487804878048" /><line stroke="#1e4080" stroke-opacity="0.4" stroke-width="0.7" x1="-559.6195121951218" x2="-525.7292682926828" y1="680.6585365853658" y2="714.5487804878048" /><line stroke="#1e4080" stroke-opacity="0.4" stroke-width="0.7" x1="-551.6195121951218" x2="-517.7292682926828" y1="680.6585365853658" y2="714.5487804878048" /><line stroke="#1e4080" stroke-opacity="0.4" stroke-width="0.7" x1="-543.6195121951218" x2="-509.72926829268283" y1="680.6585365853658" y2="714.5487804878048" /><line stroke="#1e4080" stroke-opacity="0.4" stroke-width="0.7" x1="-535.6195121951218" x2="-501.72926829268283" y1="680.6585365853658" y2="714.5487804878048" /><line stroke="#1e4080" stroke-opacity="0.4" stroke-width="0.7" x1="-527.6195121951218" x2="-493.72926829268283" y1="680.6585365853658" y2="714.5487804878048" /><line stroke="#1e4080" stroke-opacity="0.4" stroke-width="0.7" x1="-519.6195121951218" x2="-485.72926829268283" y1="680.6585365853658" y2="714.5487804878048" /><line stroke="#1e4080" stroke-opacity="0.4" stroke-width="0.7" x1="-511.61951219512184" x2="-477.72926829268283" y1="680.6585365853658" y2="714.5487804878048" /><line stroke="#1e4080" stroke-opacity="0.4" stroke-width="0.7" x1="-503.61951219512184" x2="-469.72926829268283" y1="680.6585365853658" y2="714.5487804878048" /><line stroke="#1e4080" stroke-opacity="0.4" stroke-width="0.7" x1="-495.61951219512184" x2="-461.72926829268283" y1="680.6585365853658" y2="714.5487804878048" /><line stroke="#1e4080" stroke-opacity="0.4" stroke-width="0.7" x1="-487.61951219512184" x2="-453.72926829268283" y1="680.6585365853658" y2="714.5487804878048" /><line stroke="#1e4080" stroke-opacity="0.4" stroke-width="0.7" x1="-479.61951219512184" x2="-445.72926829268283" y1="680.6585365853658" y2="714.5487804878048" /><line stroke="#1e4080" stroke-opacity="0.4" stroke-width="0.7" x1="-471.61951219512184" x2="-437.72926829268283" y1="680.6585365853658" y2="714.5487804878048" /><line stroke="#1e4080" stroke-opacity="0.4" stroke-width="0.7" x1="-463.61951219512184" x2="-429.72926829268283" y1="680.6585365853658" y2="714.5487804878048" /><line stroke="#1e4080" stroke-opacity="0.4" stroke-width="0.7" x1="-455.61951219512184" x2="-421.72926829268283" y1="680.6585365853658" y2="714.5487804878048" /><line stroke="#1e4080" stroke-opacity="0.4" stroke-width="0.7" x1="-447.61951219512184" x2="-413.72926829268283" y1="680.6585365853658" y2="714.5487804878048" /><line stroke="#1e4080" stroke-opacity="0.4" stroke-width="0.7" x1="-439.61951219512184" x2="-405.72926829268283" y1="680.6585365853658" y2="714.5487804878048" /><line stroke="#1e4080" stroke-opacity="0.4" stroke-width="0.7" x1="-431.61951219512184" x2="-397.72926829268283" y1="680.6585365853658" y2="714.5487804878048" /><line stroke="#1e4080" stroke-opacity="0.4" stroke-width="0.7" x1="-423.61951219512184" x2="-389.72926829268283" y1="680.6585365853658" y2="714.5487804878048" /><line stroke="#1e4080" stroke-opacity="0.4" stroke-width="0.7" x1="-415.61951219512184" x2="-381.72926829268283" y1="680.6585365853658" y2="714.5487804878048" /><line stroke="#1e4080" stroke-opacity="0.4" stroke-width="0.7" x1="-407.61951219512184" x2="-373.72926829268283" y1="680.6585365853658" y2="714.5487804878048" /><line stroke="#1e4080" stroke-opacity="0.4" stroke-width="0.7" x1="-399.61951219512184" x2="-365.72926829268283" y1="680.6585365853658" y2="714.5487804878048" /><line stroke="#1e4080" stroke-opacity="0.4" stroke-width="0.7" x1="-391.61951219512184" x2="-357.72926829268283" y1="680.6585365853658" y2="714.5487804878048" /><line stroke="#1e4080" stroke-opacity="0.4" stroke-width="0.7" x1="-383.61951219512184" x2="-349.72926829268283" y1="680.6585365853658" y2="714.5487804878048" /><line stroke="#1e4080" stroke-opacity="0.4" stroke-width="0.7" x1="-375.61951219512184" x2="-341.72926829268283" y1="680.6585365853658" y2="714.5487804878048" /><line stroke="#1e4080" stroke-opacity="0.4" stroke-width="0.7" x1="-367.61951219512184" x2="-333.72926829268283" y1="680.6585365853658" y2="714.5487804878048" /><line stroke="#1e4080" stroke-opacity="0.4" stroke-width="0.7" x1="-359.61951219512184" x2="-325.72926829268283" y1="680.6585365853658" y2="714.5487804878048" /><line stroke="#1e4080" stroke-opacity="0.4" stroke-width="0.7" x1="-351.61951219512184" x2="-317.72926829268283" y1="680.6585365853658" y2="714.5487804878048" /><line stroke="#1e4080" stroke-opacity="0.4" stroke-width="0.7" x1="-343.61951219512184" x2="-309.72926829268283" y1="680.6585365853658" y2="714.5487804878048" /><line stroke="#1e4080" stroke-opacity="0.4" stroke-width="0.7" x1="-335.61951219512184" x2="-301.72926829268283" y1="680.6585365853658" y2="714.5487804878048" /><line stroke="#1e4080" stroke-opacity="0.4" stroke-width="0.7" x1="-327.61951219512184" x2="-293.72926829268283" y1="680.6585365853658" y2="714.5487804878048" /><line stroke="#1e4080" stroke-opacity="0.4" stroke-width="0.7" x1="-319.61951219512184" x2="-285.72926829268283" y1="680.6585365853658" y2="714.5487804878048" /><line stroke="#1e4080" stroke-opacity="0.4" stroke-width="0.7" x1="-311.61951219512184" x2="-277.72926829268283" y1="680.6585365853658" y2="714.5487804878048" /><line stroke="#1e4080" stroke-opacity="0.4" stroke-width="0.7" x1="-303.61951219512184" x2="-269.72926829268283" y1="680.6585365853658" y2="714.5487804878048" /><line stroke="#1e4080" stroke-opacity="0.4" stroke-width="0.7" x1="-295.61951219512184" x2="-261.72926829268283" y1="680.6585365853658" y2="714.5487804878048" /><line stroke="#1e4080" stroke-opacity="0.4" stroke-width="0.7" x1="-287.61951219512184" x2="-253.72926829268283" y1="680.6585365853658" y2="714.5487804878048" /><line stroke="#1e4080" stroke-opacity="0.4" stroke-width="0.7" x1="-279.61951219512184" x2="-245.72926829268283" y1="680.6585365853658" y2="714.5487804878048" /><line stroke="#1e4080" stroke-opacity="0.4" stroke-width="0.7" x1="-271.61951219512184" x2="-237.72926829268283" y1="680.6585365853658" y2="714.5487804878048" /><line stroke="#1e4080" stroke-opacity="0.4" stroke-width="0.7" x1="-263.61951219512184" x2="-229.72926829268283" y1="680.6585365853658" y2="714.5487804878048" /><line stroke="#1e4080" stroke-opacity="0.4" stroke-width="0.7" x1="-255.61951219512187" x2="-221.72926829268283" y1="680.6585365853658" y2="714.5487804878048" /><line stroke="#1e4080" stroke-opacity="0.4" stroke-width="0.7" x1="-247.61951219512187" x2="-213.72926829268283" y1="680.6585365853658" y2="714.5487804878048" /><line stroke="#1e4080" stroke-opacity="0.4" stroke-width="0.7" x1="-239.61951219512187" x2="-205.72926829268283" y1="680.6585365853658" y2="714.5487804878048" /><line stroke="#1e4080" stroke-opacity="0.4" stroke-width="0.7" x1="-231.61951219512187" x2="-197.72926829268283" y1="680.6585365853658" y2="714.5487804878048" /><line stroke="#1e4080" stroke-opacity="0.4" stroke-width="0.7" x1="-223.61951219512187" x2="-189.72926829268283" y1="680.6585365853658" y2="714.5487804878048" /><line stroke="#1e4080" stroke-opacity="0.4" stroke-width="0.7" x1="-215.61951219512187" x2="-181.72926829268283" y1="680.6585365853658" y2="714.5487804878048" /><line stroke="#1e4080" stroke-opacity="0.4" stroke-width="0.7" x1="-207.61951219512187" x2="-173.72926829268283" y1="680.6585365853658" y2="714.5487804878048" /><line stroke="#1e4080" stroke-opacity="0.4" stroke-width="0.7" x1="-199.61951219512187" x2="-165.72926829268283" y1="680.6585365853658" y2="714.5487804878048" /><line stroke="#1e4080" stroke-opacity="0.4" stroke-width="0.7" x1="-191.61951219512187" x2="-157.72926829268283" y1="680.6585365853658" y2="714.5487804878048" /><line stroke="#1e4080" stroke-opacity="0.4" stroke-width="0.7" x1="-183.61951219512187" x2="-149.72926829268283" y1="680.6585365853658" y2="714.5487804878048" /><line stroke="#1e4080" stroke-opacity="0.4" stroke-width="0.7" x1="-175.61951219512187" x2="-141.72926829268283" y1="680.6585365853658" y2="714.5487804878048" /><line stroke="#1e4080" stroke-opacity="0.4" stroke-width="0.7" x1="-167.61951219512187" x2="-133.72926829268283" y1="680.6585365853658" y2="714.5487804878048" /><line stroke="#1e4080" stroke-opacity="0.4" stroke-width="0.7" x1="-159.61951219512187" x2="-125.72926829268285" y1="680.6585365853658" y2="714.5487804878048" /><line stroke="#1e4080" stroke-opacity="0.4" stroke-width="0.7" x1="-151.61951219512187" x2="-117.72926829268285" y1="680.6585365853658" y2="714.5487804878048" /><line stroke="#1e4080" stroke-opacity="0.4" stroke-width="0.7" x1="-143.61951219512187" x2="-109.72926829268285" y1="680.6585365853658" y2="714.5487804878048" /><line stroke="#1e4080" stroke-opacity="0.4" stroke-width="0.7" x1="-135.61951219512187" x2="-101.72926829268285" y1="680.6585365853658" y2="714.5487804878048" /><line stroke="#1e4080" stroke-opacity="0.4" stroke-width="0.7" x1="-127.61951219512187" x2="-93.72926829268285" y1="680.6585365853658" y2="714.5487804878048" /><line stroke="#1e4080" stroke-opacity="0.4" stroke-width="0.7" x1="-119.61951219512187" x2="-85.72926829268285" y1="680.6585365853658" y2="714.5487804878048" /><line stroke="#1e4080" stroke-opacity="0.4" stroke-width="0.7" x1="-111.61951219512187" x2="-77.72926829268285" y1="680.6585365853658" y2="714.5487804878048" /><line stroke="#1e4080" stroke-opacity="0.4" stroke-width="0.7" x1="-103.61951219512187" x2="-69.72926829268285" y1="680.6585365853658" y2="714.5487804878048" /><line stroke="#1e4080" stroke-opacity="0.4" stroke-width="0.7" x1="-95.61951219512187" x2="-61.729268292682846" y1="680.6585365853658" y2="714.5487804878048" /><line stroke="#1e4080" stroke-opacity="0.4" stroke-width="0.7" x1="-87.61951219512187" x2="-53.729268292682846" y1="680.6585365853658" y2="714.5487804878048" /><line stroke="#1e4080" stroke-opacity="0.4" stroke-width="0.7" x1="-79.61951219512187" x2="-45.729268292682846" y1="680.6585365853658" y2="714.5487804878048" /><line stroke="#1e4080" stroke-opacity="0.4" stroke-width="0.7" x1="-71.61951219512187" x2="-37.729268292682846" y1="680.6585365853658" y2="714.5487804878048" /><line stroke="#1e4080" stroke-opacity="0.4" stroke-width="0.7" x1="-63.61951219512187" x2="-29.729268292682846" y1="680.6585365853658" y2="714.5487804878048" /><line stroke="#1e4080" stroke-opacity="0.4" stroke-width="0.7" x1="-55.61951219512187" x2="-21.729268292682846" y1="680.6585365853658" y2="714.5487804878048" /><line stroke="#1e4080" stroke-opacity="0.4" stroke-width="0.7" x1="-47.61951219512187" x2="-13.729268292682846" y1="680.6585365853658" y2="714.5487804878048" /><line stroke="#1e4080" stroke-opacity="0.4" stroke-width="0.7" x1="-39.61951219512187" x2="-5.729268292682846" y1="680.6585365853658" y2="714.5487804878048" /><line stroke="#1e4080" stroke-opacity="0.4" stroke-width="0.7" x1="-31.61951219512187" x2="2.270731707317154" y1="680.6585365853658" y2="714.5487804878048" /><line stroke="#1e4080" stroke-opacity="0.4" stroke-width="0.7" x1="-23.61951219512187" x2="10.270731707317154" y1="680.6585365853658" y2="714.5487804878048" /><line stroke="#1e4080" stroke-opacity="0.4" stroke-width="0.7" x1="-15.619512195121871" x2="18.270731707317154" y1="680.6585365853658" y2="714.5487804878048" /><line stroke="#1e4080" stroke-opacity="0.4" stroke-width="0.7" x1="-7.619512195121871" x2="26.270731707317154" y1="680.6585365853658" y2="714.5487804878048" /><line stroke="#1e4080" stroke-opacity="0.4" stroke-width="0.7" x1="0.38048780487812905" x2="34.270731707317154" y1="680.6585365853658" y2="714.5487804878048" /><line stroke="#1e4080" stroke-opacity="0.4" stroke-width="0.7" x1="8.380487804878129" x2="42.270731707317154" y1="680.6585365853658" y2="714.5487804878048" /><line stroke="#1e4080" stroke-opacity="0.4" stroke-width="0.7" x1="16.38048780487813" x2="50.270731707317154" y1="680.6585365853658" y2="714.5487804878048" /><line stroke="#1e4080" stroke-opacity="0.4" stroke-width="0.7" x1="24.38048780487813" x2="58.270731707317154" y1="680.6585365853658" y2="714.5487804878048" /><line stroke="#1e4080" stroke-opacity="0.4" stroke-width="0.7" x1="32.38048780487813" x2="66.27073170731715" y1="680.6585365853658" y2="714.5487804878048" /><line stroke="#1e4080" stroke-opacity="0.4" stroke-width="0.7" x1="40.38048780487813" x2="74.27073170731715" y1="680.6585365853658" y2="714.5487804878048" /><line stroke="#1e4080" stroke-opacity="0.4" stroke-width="0.7" x1="48.38048780487813" x2="82.27073170731715" y1="680.6585365853658" y2="714.5487804878048" /><line stroke="#1e4080" stroke-opacity="0.4" stroke-width="0.7" x1="56.38048780487813" x2="90.27073170731715" y1="680.6585365853658" y2="714.5487804878048" /><line stroke="#1e4080" stroke-opacity="0.4" stroke-width="0.7" x1="64.38048780487813" x2="98.27073170731715" y1="680.6585365853658" y2="714.5487804878048" /><line stroke="#1e4080" stroke-opacity="0.4" stroke-width="0.7" x1="72.38048780487813" x2="106.27073170731715" y1="680.6585365853658" y2="714.5487804878048" /><line stroke="#1e4080" stroke-opacity="0.4" stroke-width="0.7" x1="80.38048780487813" x2="114.27073170731715" y1="680.6585365853658" y2="714.5487804878048" /><line stroke="#1e4080" stroke-opacity="0.4" stroke-width="0.7" x1="88.38048780487813" x2="122.27073170731715" y1="680.6585365853658" y2="714.5487804878048" /><line stroke="#1e4080" stroke-opacity="0.4" stroke-width="0.7" x1="96.38048780487813" x2="130.27073170731717" y1="680.6585365853658" y2="714.5487804878048" /><line stroke="#1e4080" stroke-opacity="0.4" stroke-width="0.7" x1="104.38048780487813" x2="138.27073170731717" y1="680.6585365853658" y2="714.5487804878048" /><line stroke="#1e4080" stroke-opacity="0.4" stroke-width="0.7" x1="112.38048780487813" x2="146.27073170731717" y1="680.6585365853658" y2="714.5487804878048" /><line stroke="#1e4080" stroke-opacity="0.4" stroke-width="0.7" x1="120.38048780487813" x2="154.27073170731717" y1="680.6585365853658" y2="714.5487804878048" /><line stroke="#1e4080" stroke-opacity="0.4" stroke-width="0.7" x1="128.38048780487813" x2="162.27073170731717" y1="680.6585365853658" y2="714.5487804878048" /><line stroke="#1e4080" stroke-opacity="0.4" stroke-width="0.7" x1="136.38048780487813" x2="170.27073170731717" y1="680.6585365853658" y2="714.5487804878048" /><line stroke="#1e4080" stroke-opacity="0.4" stroke-width="0.7" x1="144.38048780487813" x2="178.27073170731717" y1="680.6585365853658" y2="714.5487804878048" /><line stroke="#1e4080" stroke-opacity="0.4" stroke-width="0.7" x1="152.38048780487813" x2="186.27073170731717" y1="680.6585365853658" y2="714.5487804878048" /><line stroke="#1e4080" stroke-opacity="0.4" stroke-width="0.7" x1="160.38048780487813" x2="194.27073170731717" y1="680.6585365853658" y2="714.5487804878048" /><line stroke="#1e4080" stroke-opacity="0.4" stroke-width="0.7" x1="168.38048780487813" x2="202.27073170731717" y1="680.6585365853658" y2="714.5487804878048" /><line stroke="#1e4080" stroke-opacity="0.4" stroke-width="0.7" x1="176.38048780487813" x2="210.27073170731717" y1="680.6585365853658" y2="714.5487804878048" /><line stroke="#1e4080" stroke-opacity="0.4" stroke-width="0.7" x1="184.38048780487813" x2="218.27073170731717" y1="680.6585365853658" y2="714.5487804878048" /><line stroke="#1e4080" stroke-opacity="0.4" stroke-width="0.7" x1="192.38048780487813" x2="226.27073170731717" y1="680.6585365853658" y2="714.5487804878048" /><line stroke="#1e4080" stroke-opacity="0.4" stroke-width="0.7" x1="200.38048780487813" x2="234.27073170731717" y1="680.6585365853658" y2="714.5487804878048" /><line stroke="#1e4080" stroke-opacity="0.4" stroke-width="0.7" x1="208.38048780487813" x2="242.27073170731717" y1="680.6585365853658" y2="714.5487804878048" /><line stroke="#1e4080" stroke-opacity="0.4" stroke-width="0.7" x1="216.38048780487813" x2="250.27073170731717" y1="680.6585365853658" y2="714.5487804878048" /><line stroke="#1e4080" stroke-opacity="0.4" stroke-width="0.7" x1="224.38048780487813" x2="258.27073170731717" y1="680.6585365853658" y2="714.5487804878048" /><line stroke="#1e4080" stroke-opacity="0.4" stroke-width="0.7" x1="232.38048780487813" x2="266.27073170731717" y1="680.6585365853658" y2="714.5487804878048" /><line stroke="#1e4080" stroke-opacity="0.4" stroke-width="0.7" x1="240.38048780487813" x2="274.27073170731717" y1="680.6585365853658" y2="714.5487804878048" /><line stroke="#1e4080" stroke-opacity="0.4" stroke-width="0.7" x1="248.38048780487813" x2="282.27073170731717" y1="680.6585365853658" y2="714.5487804878048" /><line stroke="#1e4080" stroke-opacity="0.4" stroke-width="0.7" x1="256.38048780487816" x2="290.27073170731717" y1="680.6585365853658" y2="714.5487804878048" /><line stroke="#1e4080" stroke-opacity="0.4" stroke-width="0.7" x1="264.38048780487816" x2="298.27073170731717" y1="680.6585365853658" y2="714.5487804878048" /><line stroke="#1e4080" stroke-opacity="0.4" stroke-width="0.7" x1="272.38048780487816" x2="306.27073170731717" y1="680.6585365853658" y2="714.5487804878048" /><line stroke="#1e4080" stroke-opacity="0.4" stroke-width="0.7" x1="280.38048780487816" x2="314.27073170731717" y1="680.6585365853658" y2="714.5487804878048" /><line stroke="#1e4080" stroke-opacity="0.4" stroke-width="0.7" x1="288.38048780487816" x2="322.27073170731717" y1="680.6585365853658" y2="714.5487804878048" /><line stroke="#1e4080" stroke-opacity="0.4" stroke-width="0.7" x1="296.38048780487816" x2="330.27073170731717" y1="680.6585365853658" y2="714.5487804878048" /><line stroke="#1e4080" stroke-opacity="0.4" stroke-width="0.7" x1="304.38048780487816" x2="338.27073170731717" y1="680.6585365853658" y2="714.5487804878048" /><line stroke="#1e4080" stroke-opacity="0.4" stroke-width="0.7" x1="312.38048780487816" x2="346.27073170731717" y1="680.6585365853658" y2="714.5487804878048" /><line stroke="#1e4080" stroke-opacity="0.4" stroke-width="0.7" x1="320.38048780487816" x2="354.27073170731717" y1="680.6585365853658" y2="714.5487804878048" /><line stroke="#1e4080" stroke-opacity="0.4" stroke-width="0.7" x1="328.38048780487816" x2="362.27073170731717" y1="680.6585365853658" y2="714.5487804878048" /><line stroke="#1e4080" stroke-opacity="0.4" stroke-width="0.7" x1="336.38048780487816" x2="370.27073170731717" y1="680.6585365853658" y2="714.5487804878048" /><line stroke="#1e4080" stroke-opacity="0.4" stroke-width="0.7" x1="344.38048780487816" x2="378.27073170731717" y1="680.6585365853658" y2="714.5487804878048" /><line stroke="#1e4080" stroke-opacity="0.4" stroke-width="0.7" x1="352.38048780487816" x2="386.27073170731717" y1="680.6585365853658" y2="714.5487804878048" /><line stroke="#1e4080" stroke-opacity="0.4" stroke-width="0.7" x1="360.38048780487816" x2="394.27073170731717" y1="680.6585365853658" y2="714.5487804878048" /><line stroke="#1e4080" stroke-opacity="0.4" stroke-width="0.7" x1="368.38048780487816" x2="402.27073170731717" y1="680.6585365853658" y2="714.5487804878048" /><line stroke="#1e4080" stroke-opacity="0.4" stroke-width="0.7" x1="376.38048780487816" x2="410.27073170731717" y1="680.6585365853658" y2="714.5487804878048" /><line stroke="#1e4080" stroke-opacity="0.4" stroke-width="0.7" x1="384.38048780487816" x2="418.27073170731717" y1="680.6585365853658" y2="714.5487804878048" /><line stroke="#1e4080" stroke-opacity="0.4" stroke-width="0.7" x1="392.38048780487816" x2="426.27073170731717" y1="680.6585365853658" y2="714.5487804878048" /><line stroke="#1e4080" stroke-opacity="0.4" stroke-width="0.7" x1="400.38048780487816" x2="434.27073170731717" y1="680.6585365853658" y2="714.5487804878048" /><line stroke="#1e4080" stroke-opacity="0.4" stroke-width="0.7" x1="408.38048780487816" x2="442.27073170731717" y1="680.6585365853658" y2="714.5487804878048" /><line stroke="#1e4080" stroke-opacity="0.4" stroke-width="0.7" x1="416.38048780487816" x2="450.27073170731717" y1="680.6585365853658" y2="714.5487804878048" /><line stroke="#1e4080" stroke-opacity="0.4" stroke-width="0.7" x1="424.38048780487816" x2="458.27073170731717" y1="680.6585365853658" y2="714.5487804878048" /><line stroke="#1e4080" stroke-opacity="0.4" stroke-width="0.7" x1="432.38048780487816" x2="466.27073170731717" y1="680.6585365853658" y2="714.5487804878048" /><line stroke="#1e4080" stroke-opacity="0.4" stroke-width="0.7" x1="440.38048780487816" x2="474.27073170731717" y1="680.6585365853658" y2="714.5487804878048" /><line stroke="#1e4080" stroke-opacity="0.4" stroke-width="0.7" x1="448.38048780487816" x2="482.27073170731717" y1="680.6585365853658" y2="714.5487804878048" /><line stroke="#1e4080" stroke-opacity="0.4" stroke-width="0.7" x1="456.38048780487816" x2="490.27073170731717" y1="680.6585365853658" y2="714.5487804878048" /><line stroke="#1e4080" stroke-opacity="0.4" stroke-width="0.7" x1="464.38048780487816" x2="498.27073170731717" y1="680.6585365853658" y2="714.5487804878048" /><line stroke="#1e4080" stroke-opacity="0.4" stroke-width="0.7" x1="472.38048780487816" x2="506.27073170731717" y1="680.6585365853658" y2="714.5487804878048" /><line stroke="#1e4080" stroke-opacity="0.4" stroke-width="0.7" x1="480.38048780487816" x2="514.2707317073172" y1="680.6585365853658" y2="714.5487804878048" /><line stroke="#1e4080" stroke-opacity="0.4" stroke-width="0.7" x1="488.38048780487816" x2="522.2707317073172" y1="680.6585365853658" y2="714.5487804878048" /><line stroke="#1e4080" stroke-opacity="0.4" stroke-width="0.7" x1="496.38048780487816" x2="530.2707317073172" y1="680.6585365853658" y2="714.5487804878048" /><line stroke="#1e4080" stroke-opacity="0.4" stroke-width="0.7" x1="504.38048780487816" x2="538.2707317073172" y1="680.6585365853658" y2="714.5487804878048" /><line stroke="#1e4080" stroke-opacity="0.4" stroke-width="0.7" x1="512.3804878048782" x2="546.2707317073172" y1="680.6585365853658" y2="714.5487804878048" /><line stroke="#1e4080" stroke-opacity="0.4" stroke-width="0.7" x1="520.3804878048782" x2="554.2707317073172" y1="680.6585365853658" y2="714.5487804878048" /><line stroke="#1e4080" stroke-opacity="0.4" stroke-width="0.7" x1="528.3804878048782" x2="562.2707317073172" y1="680.6585365853658" y2="714.5487804878048" /><line stroke="#1e4080" stroke-opacity="0.4" stroke-width="0.7" x1="536.3804878048782" x2="570.2707317073172" y1="680.6585365853658" y2="714.5487804878048" /><line stroke="#1e4080" stroke-opacity="0.4" stroke-width="0.7" x1="544.3804878048782" x2="578.2707317073172" y1="680.6585365853658" y2="714.5487804878048" /><line stroke="#1e4080" stroke-opacity="0.4" stroke-width="0.7" x1="552.3804878048782" x2="586.2707317073172" y1="680.6585365853658" y2="714.5487804878048" /><line stroke="#1e4080" stroke-opacity="0.4" stroke-width="0.7" x1="560.3804878048782" x2="594.2707317073172" y1="680.6585365853658" y2="714.5487804878048" /><line stroke="#1e4080" stroke-opacity="0.4" stroke-width="0.7" x1="568.3804878048782" x2="602.2707317073172" y1="680.6585365853658" y2="714.5487804878048" /><line stroke="#1e4080" stroke-opacity="0.4" stroke-width="0.7" x1="576.3804878048782" x2="610.2707317073172" y1="680.6585365853658" y2="714.5487804878048" /><line stroke="#1e4080" stroke-opacity="0.4" stroke-width="0.7" x1="584.3804878048782" x2="618.2707317073172" y1="680.6585365853658" y2="714.5487804878048" /><line stroke="#1e4080" stroke-opacity="0.4" stroke-width="0.7" x1="592.3804878048782" x2="626.2707317073172" y1="680.6585365853658" y2="714.5487804878048" /><line stroke="#1e4080" stroke-opacity="0.4" stroke-width="0.7" x1="600.3804878048782" x2="634.2707317073172" y1="680.6585365853658" y2="714.5487804878048" /><line stroke="#1e4080" stroke-opacity="0.4" stroke-width="0.7" x1="608.3804878048782" x2="642.2707317073172" y1="680.6585365853658" y2="714.5487804878048" /><line stroke="#1e4080" stroke-opacity="0.4" stroke-width="0.7" x1="616.3804878048782" x2="650.2707317073172" y1="680.6585365853658" y2="714.5487804878048" /><line stroke="#1e4080" stroke-opacity="0.4" stroke-width="0.7" x1="624.3804878048782" x2="658.2707317073172" y1="680.6585365853658" y2="714.5487804878048" /><line stroke="#1e4080" stroke-opacity="0.4" stroke-width="0.7" x1="632.3804878048782" x2="666.2707317073172" y1="680.6585365853658" y2="714.5487804878048" /><line stroke="#1e4080" stroke-opacity="0.4" stroke-width="0.7" x1="640.3804878048782" x2="674.2707317073172" y1="680.6585365853658" y2="714.5487804878048" /><line stroke="#1e4080" stroke-opacity="0.4" stroke-width="0.7" x1="648.3804878048782" x2="682.2707317073172" y1="680.6585365853658" y2="714.5487804878048" /><line stroke="#1e4080" stroke-opacity="0.4" stroke-width="0.7" x1="656.3804878048782" x2="690.2707317073172" y1="680.6585365853658" y2="714.5487804878048" /><line stroke="#1e4080" stroke-opacity="0.4" stroke-width="0.7" x1="664.3804878048782" x2="698.2707317073172" y1="680.6585365853658" y2="714.5487804878048" /><line stroke="#1e4080" stroke-opacity="0.4" stroke-width="0.7" x1="672.3804878048782" x2="706.2707317073172" y1="680.6585365853658" y2="714.5487804878048" /><line stroke="#1e4080" stroke-opacity="0.4" stroke-width="0.7" x1="680.3804878048782" x2="714.2707317073172" y1="680.6585365853658" y2="714.5487804878048" /><line stroke="#1e4080" stroke-opacity="0.4" stroke-width="0.7" x1="688.3804878048782" x2="722.2707317073172" y1="680.6585365853658" y2="714.5487804878048" /><line stroke="#1e4080" stroke-opacity="0.4" stroke-width="0.7" x1="696.3804878048782" x2="730.2707317073172" y1="680.6585365853658" y2="714.5487804878048" /><line stroke="#1e4080" stroke-opacity="0.4" stroke-width="0.7" x1="704.3804878048782" x2="738.2707317073172" y1="680.6585365853658" y2="714.5487804878048" /><line stroke="#1e4080" stroke-opacity="0.4" stroke-width="0.7" x1="712.3804878048782" x2="746.2707317073172" y1="680.6585365853658" y2="714.5487804878048" /><line stroke="#1e4080" stroke-opacity="0.4" stroke-width="0.7" x1="720.3804878048782" x2="754.2707317073172" y1="680.6585365853658" y2="714.5487804878048" /><line stroke="#1e4080" stroke-opacity="0.4" stroke-width="0.7" x1="728.3804878048782" x2="762.2707317073172" y1="680.6585365853658" y2="714.5487804878048" /><line stroke="#1e4080" stroke-opacity="0.4" stroke-width="0.7" x1="736.3804878048782" x2="770.2707317073172" y1="680.6585365853658" y2="714.5487804878048" /><line stroke="#1e4080" stroke-opacity="0.4" stroke-width="0.7" x1="744.3804878048782" x2="778.2707317073172" y1="680.6585365853658" y2="714.5487804878048" /><line stroke="#1e4080" stroke-opacity="0.4" stroke-width="0.7" x1="752.3804878048782" x2="786.2707317073172" y1="680.6585365853658" y2="714.5487804878048" /><line stroke="#1e4080" stroke-opacity="0.4" stroke-width="0.7" x1="760.3804878048782" x2="794.2707317073172" y1="680.6585365853658" y2="714.5487804878048" /><line stroke="#1e4080" stroke-opacity="0.4" stroke-width="0.7" x1="768.3804878048782" x2="802.2707317073172" y1="680.6585365853658" y2="714.5487804878048" /><line stroke="#1e4080" stroke-opacity="0.4" stroke-width="0.7" x1="776.3804878048782" x2="810.2707317073172" y1="680.6585365853658" y2="714.5487804878048" /><line stroke="#1e4080" stroke-opacity="0.4" stroke-width="0.7" x1="784.3804878048782" x2="818.2707317073172" y1="680.6585365853658" y2="714.5487804878048" /><line stroke="#1e4080" stroke-opacity="0.4" stroke-width="0.7" x1="792.3804878048782" x2="826.2707317073172" y1="680.6585365853658" y2="714.5487804878048" /><line stroke="#1e4080" stroke-opacity="0.4" stroke-width="0.7" x1="800.3804878048782" x2="834.2707317073172" y1="680.6585365853658" y2="714.5487804878048" /><line stroke="#1e4080" stroke-opacity="0.4" stroke-width="0.7" x1="808.3804878048782" x2="842.2707317073172" y1="680.6585365853658" y2="714.5487804878048" /><line stroke="#1e4080" stroke-opacity="0.4" stroke-width="0.7" x1="816.3804878048782" x2="850.2707317073172" y1="680.6585365853658" y2="714.5487804878048" /><line stroke="#1e4080" stroke-opacity="0.4" stroke-width="0.7" x1="824.3804878048782" x2="858.2707317073172" y1="680.6585365853658" y2="714.5487804878048" /><line stroke="#1e4080" stroke-opacity="0.4" stroke-width="0.7" x1="832.3804878048782" x2="866.2707317073172" y1="680.6585365853658" y2="714.5487804878048" /><line stroke="#1e4080" stroke-opacity="0.4" stroke-width="0.7" x1="840.3804878048782" x2="874.2707317073172" y1="680.6585365853658" y2="714.5487804878048" /><line stroke="#1e4080" stroke-opacity="0.4" stroke-width="0.7" x1="848.3804878048782" x2="882.2707317073172" y1="680.6585365853658" y2="714.5487804878048" /><line stroke="#1e4080" stroke-opacity="0.4" stroke-width="0.7" x1="856.3804878048782" x2="890.2707317073172" y1="680.6585365853658" y2="714.5487804878048" /><line stroke="#1e4080" stroke-opacity="0.4" stroke-width="0.7" x1="864.3804878048782" x2="898.2707317073172" y1="680.6585365853658" y2="714.5487804878048" /><line stroke="#1e4080" stroke-opacity="0.4" stroke-width="0.7" x1="872.3804878048782" x2="906.2707317073172" y1="680.6585365853658" y2="714.5487804878048" /><line stroke="#1e4080" stroke-opacity="0.4" stroke-width="0.7" x1="880.3804878048782" x2="914.2707317073172" y1="680.6585365853658" y2="714.5487804878048" /><line stroke="#1e4080" stroke-opacity="0.4" stroke-width="0.7" x1="888.3804878048782" x2="922.2707317073172" y1="680.6585365853658" y2="714.5487804878048" /><line stroke="#1e4080" stroke-opacity="0.4" stroke-width="0.7" x1="896.3804878048782" x2="930.2707317073172" y1="680.6585365853658" y2="714.5487804878048" /><line stroke="#1e4080" stroke-opacity="0.4" stroke-width="0.7" x1="904.3804878048782" x2="938.2707317073172" y1="680.6585365853658" y2="714.5487804878048" /><line stroke="#1e4080" stroke-opacity="0.4" stroke-width="0.7" x1="912.3804878048782" x2="946.2707317073172" y1="680.6585365853658" y2="714.5487804878048" /><line stroke="#1e4080" stroke-opacity="0.4" stroke-width="0.7" x1="920.3804878048782" x2="954.2707317073172" y1="680.6585365853658" y2="714.5487804878048" /><line stroke="#1e4080" stroke-opacity="0.4" stroke-width="0.7" x1="928.3804878048782" x2="962.2707317073172" y1="680.6585365853658" y2="714.5487804878048" /><line stroke="#1e4080" stroke-opacity="0.4" stroke-width="0.7" x1="936.3804878048782" x2="970.2707317073172" y1="680.6585365853658" y2="714.5487804878048" /><line stroke="#1e4080" stroke-opacity="0.4" stroke-width="0.7" x1="944.3804878048782" x2="978.2707317073172" y1="680.6585365853658" y2="714.5487804878048" /><line stroke="#1e4080" stroke-opacity="0.4" stroke-width="0.7" x1="952.3804878048782" x2="986.2707317073172" y1="680.6585365853658" y2="714.5487804878048" /><line stroke="#1e4080" stroke-opacity="0.4" stroke-width="0.7" x1="960.3804878048782" x2="994.2707317073172" y1="680.6585365853658" y2="714.5487804878048" /><line stroke="#1e4080" stroke-opacity="0.4" stroke-width="0.7" x1="968.3804878048782" x2="1002.2707317073172" y1="680.6585365853658" y2="714.5487804878048" /><line stroke="#1e4080" stroke-opacity="0.4" stroke-width="0.7" x1="976.3804878048782" x2="1010.2707317073172" y1="680.6585365853658" y2="714.5487804878048" /><line stroke="#1e4080" stroke-opacity="0.4" stroke-width="0.7" x1="984.3804878048782" x2="1018.2707317073172" y1="680.6585365853658" y2="714.5487804878048" /><line stroke="#1e4080" stroke-opacity="0.4" stroke-width="0.7" x1="992.3804878048782" x2="1026.2707317073173" y1="680.6585365853658" y2="714.5487804878048" /><line stroke="#1e4080" stroke-opacity="0.4" stroke-width="0.7" x1="1000.3804878048782" x2="1034.2707317073173" y1="680.6585365853658" y2="714.5487804878048" /><line stroke="#1e4080" stroke-opacity="0.4" stroke-width="0.7" x1="1008.3804878048782" x2="1042.2707317073173" y1="680.6585365853658" y2="714.5487804878048" /><line stroke="#1e4080" stroke-opacity="0.4" stroke-width="0.7" x1="1016.3804878048782" x2="1050.2707317073173" y1="680.6585365853658" y2="714.5487804878048" /><line stroke="#1e4080" stroke-opacity="0.4" stroke-width="0.7" x1="1024.3804878048782" x2="1058.2707317073173" y1="680.6585365853658" y2="714.5487804878048" /><line stroke="#1e4080" stroke-opacity="0.4" stroke-width="0.7" x1="1032.3804878048782" x2="1066.2707317073173" y1="680.6585365853658" y2="714.5487804878048" /><line stroke="#1e4080" stroke-opacity="0.4" stroke-width="0.7" x1="1040.3804878048782" x2="1074.2707317073173" y1="680.6585365853658" y2="714.5487804878048" /><line stroke="#1e4080" stroke-opacity="0.4" stroke-width="0.7" x1="1048.3804878048782" x2="1082.2707317073173" y1="680.6585365853658" y2="714.5487804878048" /><line stroke="#1e4080" stroke-opacity="0.4" stroke-width="0.7" x1="1056.3804878048782" x2="1090.2707317073173" y1="680.6585365853658" y2="714.5487804878048" /><line stroke="#1e4080" stroke-opacity="0.4" stroke-width="0.7" x1="1064.3804878048782" x2="1098.2707317073173" y1="680.6585365853658" y2="714.5487804878048" /><line stroke="#1e4080" stroke-opacity="0.4" stroke-width="0.7" x1="1072.3804878048782" x2="1106.2707317073173" y1="680.6585365853658" y2="714.5487804878048" /><line stroke="#1e4080" stroke-opacity="0.4" stroke-width="0.7" x1="1080.3804878048782" x2="1114.2707317073173" y1="680.6585365853658" y2="714.5487804878048" /></g><rect fill="none" height="33.890243902439025" stroke="#2563eb" stroke-dasharray="5,3" stroke-width="0.7" width="807.2390243902439" x="241.38048780487813" y="680.6585365853658" /><text fill="#94a3b8" font-family="Arial" font-size="8" font-style="italic" text-anchor="middle" x="645.0000000000001" y="700.6036585365854">Cable Gland Plate / Entry Zone</text><line stroke="#f59e0b" stroke-width="1.8" x1="645.0" x2="645.0" y1="100" y2="728.7560975609756" /><circle cx="657.0" cy="414.3780487804878" fill="#f59e0b" r="4.5" stroke="none" /><circle cx="657.0" cy="414.3780487804878" fill="#0a0f1e" r="2.0" stroke="none" /><rect fill="#0a1a2e" height="145.2439024390244" rx="6" stroke="#3b82f6" stroke-width="2.0" width="203.34146341463415" x="326.91585365853666" y="99.6829268292683" /><rect fill="none" height="129.2439024390244" rx="4" stroke="#2563eb" stroke-width="0.8" width="187.34146341463415" x="334.91585365853666" y="107.6829268292683" /><text fill="#60a5fa" font-family="Arial" font-size="8" font-weight="bold" text-anchor="middle" x="428.58658536585375" y="170.3048780487805">HMI / TOUCH SCREEN</text><text fill="#94a3b8" font-family="Arial" font-size="6.5" font-style="italic" text-anchor="middle" x="428.58658536585375" y="182.3048780487805">Control Cutout</text><text fill="#e2e8f0" font-family="Arial" font-size="10" font-weight="bold" text-anchor="middle" x="645.0" y="906.0">FRONT ELEVATION GA</text><rect fill="#08121f" height="145.2439024390244" stroke="#4a9eca" stroke-width="1.5" width="140.0" x="1149.8268292682928" y="738.7560975609756" /><g clip-path="url(#cl_1149_738_140)"><line stroke="#1e4080" stroke-opacity="0.4" stroke-width="0.7" x1="864.8268292682928" x2="1010.0707317073172" y1="738.7560975609756" y2="884.0" /><line stroke="#1e4080" stroke-opacity="0.4" stroke-width="0.7" x1="876.8268292682928" x2="1022.0707317073172" y1="738.7560975609756" y2="884.0" /><line stroke="#1e4080" stroke-opacity="0.4" stroke-width="0.7" x1="888.8268292682928" x2="1034.0707317073172" y1="738.7560975609756" y2="884.0" /><line stroke="#1e4080" stroke-opacity="0.4" stroke-width="0.7" x1="900.8268292682928" x2="1046.0707317073172" y1="738.7560975609756" y2="884.0" /><line stroke="#1e4080" stroke-opacity="0.4" stroke-width="0.7" x1="912.8268292682928" x2="1058.0707317073172" y1="738.7560975609756" y2="884.0" /><line stroke="#1e4080" stroke-opacity="0.4" stroke-width="0.7" x1="924.8268292682928" x2="1070.0707317073172" y1="738.7560975609756" y2="884.0" /><line stroke="#1e4080" stroke-opacity="0.4" stroke-width="0.7" x1="936.8268292682928" x2="1082.0707317073172" y1="738.7560975609756" y2="884.0" /><line stroke="#1e4080" stroke-opacity="0.4" stroke-width="0.7" x1="948.8268292682928" x2="1094.0707317073172" y1="738.7560975609756" y2="884.0" /><line stroke="#1e4080" stroke-opacity="0.4" stroke-width="0.7" x1="960.8268292682928" x2="1106.0707317073172" y1="738.7560975609756" y2="884.0" /><line stroke="#1e4080" stroke-opacity="0.4" stroke-width="0.7" x1="972.8268292682928" x2="1118.0707317073172" y1="738.7560975609756" y2="884.0" /><line stroke="#1e4080" stroke-opacity="0.4" stroke-width="0.7" x1="984.8268292682928" x2="1130.0707317073172" y1="738.7560975609756" y2="884.0" /><line stroke="#1e4080" stroke-opacity="0.4" stroke-width="0.7" x1="996.8268292682928" x2="1142.0707317073172" y1="738.7560975609756" y2="884.0" /><line stroke="#1e4080" stroke-opacity="0.4" stroke-width="0.7" x1="1008.8268292682928" x2="1154.0707317073172" y1="738.7560975609756" y2="884.0" /><line stroke="#1e4080" stroke-opacity="0.4" stroke-width="0.7" x1="1020.8268292682928" x2="1166.0707317073172" y1="738.7560975609756" y2="884.0" /><line stroke="#1e4080" stroke-opacity="0.4" stroke-width="0.7" x1="1032.8268292682928" x2="1178.0707317073172" y1="738.7560975609756" y2="884.0" /><line stroke="#1e4080" stroke-opacity="0.4" stroke-width="0.7" x1="1044.8268292682928" x2="1190.0707317073172" y1="738.7560975609756" y2="884.0" /><line stroke="#1e4080" stroke-opacity="0.4" stroke-width="0.7" x1="1056.8268292682928" x2="1202.0707317073172" y1="738.7560975609756" y2="884.0" /><line stroke="#1e4080" stroke-opacity="0.4" stroke-width="0.7" x1="1068.8268292682928" x2="1214.0707317073172" y1="738.7560975609756" y2="884.0" /><line stroke="#1e4080" stroke-opacity="0.4" stroke-width="0.7" x1="1080.8268292682928" x2="1226.0707317073172" y1="738.7560975609756" y2="884.0" /><line stroke="#1e4080" stroke-opacity="0.4" stroke-width="0.7" x1="1092.8268292682928" x2="1238.0707317073172" y1="738.7560975609756" y2="884.0" /><line stroke="#1e4080" stroke-opacity="0.4" stroke-width="0.7" x1="1104.8268292682928" x2="1250.0707317073172" y1="738.7560975609756" y2="884.0" /><line stroke="#1e4080" stroke-opacity="0.4" stroke-width="0.7" x1="1116.8268292682928" x2="1262.0707317073172" y1="738.7560975609756" y2="884.0" /><line stroke="#1e4080" stroke-opacity="0.4" stroke-width="0.7" x1="1128.8268292682928" x2="1274.0707317073172" y1="738.7560975609756" y2="884.0" /><line stroke="#1e4080" stroke-opacity="0.4" stroke-width="0.7" x1="1140.8268292682928" x2="1286.0707317073172" y1="738.7560975609756" y2="884.0" /><line stroke="#1e4080" stroke-opacity="0.4" stroke-width="0.7" x1="1152.8268292682928" x2="1298.0707317073172" y1="738.7560975609756" y2="884.0" /><line stroke="#1e4080" stroke-opacity="0.4" stroke-width="0.7" x1="1164.8268292682928" x2="1310.0707317073172" y1="738.7560975609756" y2="884.0" /><line stroke="#1e4080" stroke-opacity="0.4" stroke-width="0.7" x1="1176.8268292682928" x2="1322.0707317073172" y1="738.7560975609756" y2="884.0" /><line stroke="#1e4080" stroke-opacity="0.4" stroke-width="0.7" x1="1188.8268292682928" x2="1334.0707317073172" y1="738.7560975609756" y2="884.0" /><line stroke="#1e4080" stroke-opacity="0.4" stroke-width="0.7" x1="1200.8268292682928" x2="1346.0707317073172" y1="738.7560975609756" y2="884.0" /><line stroke="#1e4080" stroke-opacity="0.4" stroke-width="0.7" x1="1212.8268292682928" x2="1358.0707317073172" y1="738.7560975609756" y2="884.0" /><line stroke="#1e4080" stroke-opacity="0.4" stroke-width="0.7" x1="1224.8268292682928" x2="1370.0707317073172" y1="738.7560975609756" y2="884.0" /><line stroke="#1e4080" stroke-opacity="0.4" stroke-width="0.7" x1="1236.8268292682928" x2="1382.0707317073172" y1="738.7560975609756" y2="884.0" /><line stroke="#1e4080" stroke-opacity="0.4" stroke-width="0.7" x1="1248.8268292682928" x2="1394.0707317073172" y1="738.7560975609756" y2="884.0" /><line stroke="#1e4080" stroke-opacity="0.4" stroke-width="0.7" x1="1260.8268292682928" x2="1406.0707317073172" y1="738.7560975609756" y2="884.0" /><line stroke="#1e4080" stroke-opacity="0.4" stroke-width="0.7" x1="1272.8268292682928" x2="1418.0707317073172" y1="738.7560975609756" y2="884.0" /><line stroke="#1e4080" stroke-opacity="0.4" stroke-width="0.7" x1="1284.8268292682928" x2="1430.0707317073172" y1="738.7560975609756" y2="884.0" /><line stroke="#1e4080" stroke-opacity="0.4" stroke-width="0.7" x1="1296.8268292682928" x2="1442.0707317073172" y1="738.7560975609756" y2="884.0" /><line stroke="#1e4080" stroke-opacity="0.4" stroke-width="0.7" x1="1308.8268292682928" x2="1454.0707317073172" y1="738.7560975609756" y2="884.0" /><line stroke="#1e4080" stroke-opacity="0.4" stroke-width="0.7" x1="1320.8268292682928" x2="1466.0707317073172" y1="738.7560975609756" y2="884.0" /><line stroke="#1e4080" stroke-opacity="0.4" stroke-width="0.7" x1="1332.8268292682928" x2="1478.0707317073172" y1="738.7560975609756" y2="884.0" /><line stroke="#1e4080" stroke-opacity="0.4" stroke-width="0.7" x1="1344.8268292682928" x2="1490.0707317073172" y1="738.7560975609756" y2="884.0" /><line stroke="#1e4080" stroke-opacity="0.4" stroke-width="0.7" x1="1356.8268292682928" x2="1502.0707317073172" y1="738.7560975609756" y2="884.0" /><line stroke="#1e4080" stroke-opacity="0.4" stroke-width="0.7" x1="1368.8268292682928" x2="1514.0707317073172" y1="738.7560975609756" y2="884.0" /><line stroke="#1e4080" stroke-opacity="0.4" stroke-width="0.7" x1="1380.8268292682928" x2="1526.0707317073172" y1="738.7560975609756" y2="884.0" /><line stroke="#1e4080" stroke-opacity="0.4" stroke-width="0.7" x1="1392.8268292682928" x2="1538.0707317073172" y1="738.7560975609756" y2="884.0" /><line stroke="#1e4080" stroke-opacity="0.4" stroke-width="0.7" x1="1404.8268292682928" x2="1550.0707317073172" y1="738.7560975609756" y2="884.0" /><line stroke="#1e4080" stroke-opacity="0.4" stroke-width="0.7" x1="1416.8268292682928" x2="1562.0707317073172" y1="738.7560975609756" y2="884.0" /><line stroke="#1e4080" stroke-opacity="0.4" stroke-width="0.7" x1="1428.8268292682928" x2="1574.0707317073172" y1="738.7560975609756" y2="884.0" /></g><rect fill="#1a2e4a" height="648.7560975609756" stroke="#4a9eca" stroke-width="2.5" width="140.0" x="1149.8268292682928" y="90" /><rect fill="none" height="628.7560975609756" stroke="#2563eb" stroke-dasharray="8,5" stroke-width="0.9" width="120.0" x="1159.8268292682928" y="100" /><line stroke="#3b82f6" stroke-dasharray="4,2" stroke-width="2.0" x1="1272.3268292682928" x2="1272.3268292682928" y1="114.20731707317073" y2="714.5487804878048" /><text fill="#3b82f6" font-family="Arial" font-size="8" font-weight="bold" text-anchor="end" x="1264.3268292682928" y="128.7317073170732">MP</text><circle cx="1251.3268292682928" cy="257.51463414634145" fill="#ef4444" r="2.9048780487804877" stroke="#e2e8f0" stroke-width="0.5" /><circle cx="1251.3268292682928" cy="275.4280487804878" fill="#f59e0b" r="2.9048780487804877" stroke="#e2e8f0" stroke-width="0.5" /><circle cx="1251.3268292682928" cy="293.3414634146342" fill="#3b82f6" r="2.9048780487804877" stroke="#e2e8f0" stroke-width="0.5" /><circle cx="1251.3268292682928" cy="311.2548780487805" fill="#4b5563" r="2.9048780487804877" stroke="#e2e8f0" stroke-width="0.5" /><rect fill="#0a1a2e" height="145.2439024390244" stroke="#3b82f6" stroke-width="1.2" width="7.0" x="1149.8268292682928" y="99.6829268292683" /><text fill="#60a5fa" font-family="Arial" font-size="8" font-weight="bold" x="1160.8268292682928" y="175.3048780487805">HMI</text><text fill="#e2e8f0" font-family="Arial" font-size="10" font-weight="bold" text-anchor="middle" x="1219.8268292682928" y="906.0">SIDE ELEVATION</text><line stroke="#f59e0b" stroke-dasharray="4,3" stroke-width="0.6" x1="212.1731707317074" x2="212.1731707317074" y1="85" y2="48" /><line stroke="#f59e0b" stroke-dasharray="4,3" stroke-width="0.6" x1="1077.8268292682928" x2="1077.8268292682928" y1="85" y2="48" /><line stroke="#f59e0b" stroke-width="1.3" x1="212.1731707317074" x2="1077.8268292682928" y1="46" y2="46" /><line stroke="#f59e0b" stroke-width="1.3" x1="212.1731707317074" x2="212.1731707317074" y1="41" y2="51" /><polygon fill="#f59e0b" points="212.1731707317074,46 222.1731707317074,42 222.1731707317074,50" /><line stroke="#f59e0b" stroke-width="1.3" x1="1077.8268292682928" x2="1077.8268292682928" y1="41" y2="51" /><polygon fill="#f59e0b" points="1077.8268292682928,46 1067.8268292682928,42 1067.8268292682928,50" /><text fill="#f59e0b" font-family="Arial" font-size="8" font-weight="bold" text-anchor="middle" x="645.0000000000001" y="32">Width: 1788 mm</text><line stroke="#f59e0b" stroke-dasharray="4,3" stroke-width="0.6" x1="207.1731707317074" x2="157.1731707317074" y1="90" y2="90" /><line stroke="#f59e0b" stroke-dasharray="4,3" stroke-width="0.6" x1="207.1731707317074" x2="157.1731707317074" y1="738.7560975609756" y2="738.7560975609756" /><line stroke="#f59e0b" stroke-dasharray="4,3" stroke-width="0.6" x1="207.1731707317074" x2="157.1731707317074" y1="884.0" y2="884.0" /><line stroke="#f59e0b" stroke-width="1.3" x1="162.1731707317074" x2="162.1731707317074" y1="90" y2="738.7560975609756" /><line stroke="#f59e0b" stroke-width="1.3" x1="157.1731707317074" x2="167.1731707317074" y1="90" y2="90" /><polygon fill="#f59e0b" points="162.1731707317074,90 158.1731707317074,100 166.1731707317074,100" /><line stroke="#f59e0b" stroke-width="1.3" x1="157.1731707317074" x2="167.1731707317074" y1="738.7560975609756" y2="738.7560975609756" /><polygon fill="#f59e0b" points="162.1731707317074,738.7560975609756 158.1731707317074,728.7560975609756 166.1731707317074,728.7560975609756" /><g transform="rotate(-90,144.1731707317074,414.3780487804878)"><text fill="#f59e0b" font-family="Arial" font-size="8" font-weight="bold" text-anchor="middle" x="144.1731707317074" y="418.3780487804878">1340 mm</text></g><line stroke="#f59e0b" stroke-width="1.3" x1="162.1731707317074" x2="162.1731707317074" y1="738.7560975609756" y2="884.0" /><line stroke="#f59e0b" stroke-width="1.3" x1="157.1731707317074" x2="167.1731707317074" y1="738.7560975609756" y2="738.7560975609756" /><polygon fill="#f59e0b" points="162.1731707317074,738.7560975609756 158.1731707317074,748.7560975609756 166.1731707317074,748.7560975609756" /><line stroke="#f59e0b" stroke-width="1.3" x1="157.1731707317074" x2="167.1731707317074" y1="884.0" y2="884.0" /><polygon fill="#f59e0b" points="162.1731707317074,884.0 158.1731707317074,874.0 166.1731707317074,874.0" /><g transform="rotate(-90,144.1731707317074,811.3780487804878)"><text fill="#f59e0b" font-family="Arial" font-size="8" font-weight="bold" text-anchor="middle" x="144.1731707317074" y="815.3780487804878">300 mm</text></g><line stroke="#f59e0b" stroke-dasharray="4,3" stroke-width="0.6" x1="1149.8268292682928" x2="1149.8268292682928" y1="85" y2="48" /><line stroke="#f59e0b" stroke-dasharray="4,3" stroke-width="0.6" x1="1289.8268292682928" x2="1289.8268292682928" y1="85" y2="48" /><line stroke="#f59e0b" stroke-width="1.3" x1="1149.8268292682928" x2="1289.8268292682928" y1="46" y2="46" /><line stroke="#f59e0b" stroke-width="1.3" x1="1149.8268292682928" x2="1149.8268292682928" y1="41" y2="51" /><polygon fill="#f59e0b" points="1149.8268292682928,46 1159.8268292682928,42 1159.8268292682928,50" /><line stroke="#f59e0b" stroke-width="1.3" x1="1289.8268292682928" x2="1289.8268292682928" y1="41" y2="51" /><polygon fill="#f59e0b" points="1289.8268292682928,46 1279.8268292682928,42 1279.8268292682928,50" /><text fill="#f59e0b" font-family="Arial" font-size="8" font-weight="bold" text-anchor="middle" x="1219.8268292682928" y="32">Depth: 400 mm</text><line stroke="#f59e0b" stroke-dasharray="4,3" stroke-width="0.6" x1="1077.8268292682928" x2="1100.8268292682928" y1="254.60975609756096" y2="254.60975609756096" /><line stroke="#f59e0b" stroke-dasharray="4,3" stroke-width="0.6" x1="1077.8268292682928" x2="1100.8268292682928" y1="314.15975609756094" y2="314.15975609756094" /><line stroke="#f59e0b" stroke-width="1.3" x1="1102.8268292682928" x2="1102.8268292682928" y1="254.60975609756096" y2="314.15975609756094" /><line stroke="#f59e0b" stroke-width="1.3" x1="1097.8268292682928" x2="1107.8268292682928" y1="254.60975609756096" y2="254.60975609756096" /><polygon fill="#f59e0b" points="1102.8268292682928,254.60975609756096 1098.8268292682928,264.609756097561 1106.8268292682928,264.609756097561" /><line stroke="#f59e0b" stroke-width="1.3" x1="1097.8268292682928" x2="1107.8268292682928" y1="314.15975609756094" y2="314.15975609756094" /><polygon fill="#f59e0b" points="1102.8268292682928,314.15975609756094 1098.8268292682928,304.15975609756094 1106.8268292682928,304.15975609756094" /><g transform="rotate(-90,1120.8268292682928,284.38475609756097)"><text fill="#f59e0b" font-family="Arial" font-size="8" font-weight="bold" text-anchor="middle" x="1120.8268292682928" y="288.38475609756097">Busbar Chamber: 123 mm</text></g><rect fill="#060d1a" height="46" stroke="#1e3a5f" stroke-width="1" width="1472" x="0" y="894" /><text fill="#2dd4bf" font-family="Arial" font-size="13" font-weight="bold" x="18" y="922.0">MICROGRID PANEL  —  GENERAL ARRANGEMENT (GA)</text><text fill="#94a3b8" font-family="Arial" font-size="8" text-anchor="end" x="1455" y="922.0">Date: 03-Jun-2026  |  Scale: NTS  |  IEC 61439 compliant</text></svg>